<?xml version="1.0" encoding="UTF-8"?>
<svg id="Layer_1" xmlns="http://www.w3.org/2000/svg" version="1.1" viewBox="0 0 206 40.8">
  <!-- Generator: Adobe Illustrator 29.3.1, SVG Export Plug-In . SVG Version: 2.1.0 Build 151)  -->
  <defs>
    <style>
      .st0 {
        fill: #f97316;
      }

      .st1 {
        fill: #636363;
      }

      .st2 {
        fill: #333;
      }
    </style>
  </defs>
  <g>
    <path class="st2" d="M27,7.8v23.1c0,6-4.1,9.8-10.6,9.8s-.5,0-.8,0v-4.6c.3,0,.6,0,.9,0,3.3,0,5.2-2,5.2-5.4v-.4c-1.7,1.1-3.8,1.8-5.9,1.8-6.3,0-11.4-5.4-11.4-12.1S9.5,8,15.8,8s4.2.7,5.9,1.8v-1.9h5.2ZM21.8,20.1c0-3.9-2.7-7-6.1-7s-6.1,3.2-6.1,7,2.7,7.1,6.1,7.1,6.1-3.2,6.1-7.1Z"/>
    <path class="st2" d="M43,7.7v5.3h-7v19h-5.2V7.7h12.2Z"/>
    <path class="st2" d="M67.7,7.7v12.2c0,6.7-5.1,12.1-11.4,12.1s-11.4-5.4-11.4-12.1V7.7h5.3v12.1c0,3.8,2.8,6.8,6.1,6.8s6.1-3.1,6.1-6.8V7.7h5.3Z"/>
    <path class="st2" d="M79.7,26.7v5.3h-2.1c-3.8,0-6.8-3.1-6.8-6.8V2.6h5.3v5.1h3.5v5.3h-3.5v12.1c0,.8.7,1.5,1.5,1.5h2.1Z"/>
    <path class="st2" d="M105.5,19.8v12.1h-5.3v-12.1c0-3.8-2.8-6.8-6.1-6.8s-6.1,3.1-6.1,6.8v12.2h-5.3v-12.2c0-.2,0-.3,0-.5V.2h5.2v9.4c1.8-1.2,3.9-1.9,6.2-1.9,6.3,0,11.4,5.4,11.4,12.1Z"/>
  </g>
  <path class="st0" d="M19.5,22c0,.1-.1.3-.2.4-1.1,2.1-3.5,2.8-5.4,1.6-1.9-1.2-2.5-3.9-1.4-6,1.1-2.1,3.5-2.8,5.4-1.6.7.5,1.3,1.2,1.6,2-.7.2-1.2.8-1.3,1.5-.1,1,.4,1.9,1.3,2.1Z"/>
  <g>
    <path class="st1" d="M124,14v5h-1.7v-5l-2.3-6h1.8l1.4,3.9h0l1.3-3.9h1.7l-2.3,6.1Z"/>
    <path class="st1" d="M132.1,10.6v5.8c0,1.7-1,2.8-2.7,2.8s-2.7-1.1-2.7-2.8v-5.8c0-1.7,1-2.8,2.7-2.8s2.7,1.1,2.7,2.8ZM128.3,10.6v5.7c0,.8.4,1.3,1,1.3s1-.4,1-1.3v-5.7c0-.8-.4-1.3-1-1.3s-1,.4-1,1.3Z"/>
    <path class="st1" d="M138.7,16.5c0,1.7-1,2.6-2.6,2.6s-2.6-.9-2.6-2.6V7.9h1.6v8.5c0,.8.4,1.1.9,1.1s.9-.3.9-1.1V7.9h1.7v8.6Z"/>
    <path class="st1" d="M144.2,19l-1.3-4.7h-.8v4.7h-1.7V7.9h2.4c1.8,0,2.8,1,2.8,2.8v.8c0,1.2-.4,2-1.2,2.4l1.5,5h-1.8ZM142.1,9.5v3.3h.7c.8,0,1.2-.4,1.2-1.4v-.6c0-.9-.4-1.4-1.2-1.4h-.7Z"/>
    <path class="st1" d="M154.6,9.5h-3v3.1h2.4v1.5h-2.4v3.3h3v1.5h-4.7V7.9h4.7v1.5Z"/>
    <path class="st1" d="M159,14v5h-1.7v-5l-2.3-6h1.8l1.4,3.9h0l1.3-3.9h1.7l-2.3,6.1Z"/>
    <path class="st1" d="M166.7,9.5h-3v3.1h2.4v1.5h-2.4v3.3h3v1.5h-4.7V7.9h4.7v1.5Z"/>
    <path class="st1" d="M172.5,10.2v.3l-1.6.2v-.4c0-.6-.3-1-.9-1s-.9.3-.9,1h0c0,.8.3,1.3,1.4,2.3,1.5,1.3,2.1,2.2,2.1,3.5v.6c0,1.6-.9,2.5-2.6,2.5s-2.6-.9-2.6-2.5v-.7l1.6-.2v.8c0,.7.3,1,.9,1s.9-.3.9-1v-.4c0-.7-.3-1.2-1.4-2.2-1.5-1.3-2-2.2-2-3.5v-.2c0-1.6.9-2.5,2.5-2.5s2.5.9,2.5,2.5Z"/>
    <path class="st1" d="M126.3,23.7v5.8c0,1.7-1,2.8-2.7,2.8s-2.7-1.1-2.7-2.8v-5.8c0-1.7,1-2.8,2.7-2.8s2.7,1.1,2.7,2.8ZM122.6,23.7v5.7c0,.8.4,1.3,1,1.3s1-.4,1-1.3v-5.7c0-.8-.4-1.3-1-1.3s-1,.4-1,1.3Z"/>
    <path class="st1" d="M133.4,32.1h-1.6l-2.2-7.3h0v7.3h-1.6v-11h1.9l2,6.6h0v-6.6h1.6v11Z"/>
    <path class="st1" d="M142.4,22.6h-1.8v9.5h-1.7v-9.5h-1.8v-1.6h5.2v1.6Z"/>
    <path class="st1" d="M148.8,32.1h-1.7v-4.8h-2v4.8h-1.7v-11h1.7v4.6h2v-4.6h1.7v11Z"/>
    <path class="st1" d="M155.3,22.6h-3v3.1h2.4v1.5h-2.4v3.3h3v1.5h-4.7v-11h4.7v1.5Z"/>
    <path class="st1" d="M164.8,23.6v.8h-1.6c0,0,0-.6,0-.6,0-.9-.3-1.3-1-1.3s-1,.4-1,1.1v6c0,.7.3,1.1,1,1.1s1-.4,1-1.3v-1.9h-.9v-1.5h2.6v3.6c0,1.7-1,2.6-2.6,2.6s-2.6-1-2.6-2.6v-6.1c0-1.7.9-2.6,2.6-2.6s2.6,1,2.6,2.6Z"/>
    <path class="st1" d="M170.1,32.1l-1.3-4.7h-.8v4.7h-1.7v-11h2.4c1.8,0,2.8,1,2.8,2.8v.8c0,1.2-.4,2-1.2,2.4l1.5,5h-1.8ZM168,22.6v3.3h.7c.8,0,1.2-.4,1.2-1.4v-.6c0-.9-.4-1.4-1.2-1.4h-.7Z"/>
    <path class="st1" d="M178.3,23.7v5.8c0,1.7-1,2.8-2.7,2.8s-2.7-1.1-2.7-2.8v-5.8c0-1.7,1-2.8,2.7-2.8s2.7,1.1,2.7,2.8ZM174.6,23.7v5.7c0,.8.4,1.3,1,1.3s1-.4,1-1.3v-5.7c0-.8-.4-1.3-1-1.3s-1,.4-1,1.3Z"/>
    <path class="st1" d="M185,29.6c0,1.7-1,2.6-2.6,2.6s-2.6-.9-2.6-2.6v-8.6h1.6v8.5c0,.8.4,1.1.9,1.1s.9-.3.9-1.1v-8.5h1.7v8.6Z"/>
    <path class="st1" d="M192.1,32.1h-1.6l-2.2-7.3h0v7.3h-1.6v-11h1.9l2,6.6h0v-6.6h1.6v11Z"/>
    <path class="st1" d="M199.1,23.8v5.5c0,1.8-1,2.8-2.8,2.8h-2.4v-11h2.4c1.8,0,2.8,1,2.8,2.8ZM195.6,22.6v7.9h.7c.8,0,1.2-.4,1.2-1.4v-5.2c0-.9-.4-1.4-1.2-1.4h-.7Z"/>
  </g>
  <rect class="st0" x="112.7" y="7.9" width=".5" height="24"/>
</svg>