<?xml version="1.0" encoding="UTF-8"?>
<svg id="Layer_1" xmlns="http://www.w3.org/2000/svg" version="1.1" viewBox="0 0 278.7 40.8">
  <!-- Generator: Adobe Illustrator 29.3.1, SVG Export Plug-In . SVG Version: 2.1.0 Build 151)  -->
  <defs>
    <style>
      .st0 {
        fill: #f97316;
      }

      .st1 {
        fill: #fff;
      }

      .st2 {
        fill: #f7f7f7;
      }

      .st3 {
        fill: #333;
      }
    </style>
  </defs>
  <g>
    <g>
      <path class="st2" d="M163.2,19.5v-3.2l-3.5-5.3h2.2l2.3,3.6,2.4-3.6h2l-3.5,5.3v3.2h-1.9Z"/>
      <path class="st2" d="M173.3,19.6c-1.3,0-2.4-.4-3.2-1.3s-1.3-1.9-1.3-3.1.4-2.3,1.3-3.1,2-1.3,3.2-1.3,2.3.4,3.2,1.3,1.3,1.9,1.3,3.1-.4,2.3-1.3,3.1-1.9,1.3-3.2,1.3ZM173.3,17.9c.7,0,1.4-.3,1.9-.8s.8-1.2.8-1.9-.3-1.4-.8-1.9-1.1-.8-1.9-.8-1.4.3-1.9.8-.8,1.2-.8,1.9.3,1.4.8,1.9,1.1.8,1.9.8Z"/>
      <path class="st2" d="M186.1,18.6c-.7.7-1.6,1-2.8,1s-2.1-.3-2.8-1-1-1.6-1-2.8v-4.8h1.9v4.8c0,.6.2,1.2.5,1.5.4.4.8.6,1.4.6s1.1-.2,1.4-.6.5-.9.5-1.5v-4.8h1.9v4.8c0,1.2-.4,2.1-1,2.8h0Z"/>
      <path class="st2" d="M189.1,19.5v-8.5h4.2c.9,0,1.6.3,2.1.7.6.5.8,1.1.8,1.9s-.1,1-.4,1.4-.7.7-1.2.9l1.9,3.5h-2.1l-1.7-3.2h-1.8v3.2h-1.9,0ZM191,14.7h2.2c.4,0,.7,0,.9-.3.2-.2.4-.5.4-.8s-.1-.6-.4-.8c-.2-.2-.5-.3-.9-.3h-2.2v2.2h0Z"/>
      <path class="st2" d="M201.1,19.5v-8.5h6.6v1.6h-4.8v1.8h3.1v1.6h-3.1v1.9h4.8v1.6h-6.7,0Z"/>
      <path class="st2" d="M212.3,19.5v-3.2l-3.5-5.3h2.2l2.3,3.6,2.4-3.6h2l-3.5,5.3v3.2h-1.9Z"/>
      <path class="st2" d="M218.9,19.5v-8.5h6.6v1.6h-4.8v1.8h3.1v1.6h-3.1v1.9h4.8v1.6h-6.7,0Z"/>
      <path class="st2" d="M230.6,19.6c-.7,0-1.4-.1-2-.4s-1.3-.6-1.8-1.1l1.1-1.3c1,.8,1.9,1.2,2.9,1.2s.9,0,1.2-.3c.3-.2.4-.4.4-.7s0-.5-.3-.6c-.2-.1-.5-.3-1-.4l-1.8-.3c-.7-.1-1.3-.4-1.6-.8-.4-.4-.6-.9-.6-1.5s.3-1.4.9-1.9c.6-.5,1.4-.7,2.5-.7s1.3.1,1.9.3,1.2.5,1.7.9l-1,1.4c-.9-.7-1.8-1-2.7-1s-.8,0-1.1.2-.4.4-.4.7,0,.4.3.6.5.2.9.3l1.7.3c1.7.3,2.6,1.1,2.6,2.4s-.3,1.5-1,2-1.5.7-2.7.7h0Z"/>
    </g>
    <g>
      <path class="st2" d="M164.3,30c-1.3,0-2.4-.4-3.2-1.3-.9-.9-1.3-1.9-1.3-3.1s.4-2.3,1.3-3.1,2-1.3,3.2-1.3,2.3.4,3.2,1.3,1.3,1.9,1.3,3.1-.4,2.3-1.3,3.1-1.9,1.3-3.2,1.3ZM164.3,28.3c.7,0,1.4-.3,1.9-.8s.8-1.2.8-1.9-.3-1.4-.8-1.9-1.1-.8-1.9-.8-1.4.3-1.9.8-.8,1.2-.8,1.9.3,1.4.8,1.9,1.1.8,1.9.8Z"/>
      <path class="st2" d="M170.6,29.9v-8.5h1.8l4.1,5.3v-5.3h1.8v8.5h-1.7l-4.3-5.5v5.5h-1.8,0Z"/>
      <path class="st2" d="M185.7,29.9v-6.9h-2.9v-1.7h7.6v1.7h-2.8v6.9h-1.9Z"/>
      <path class="st2" d="M192,29.9v-8.5h1.9v3.4h3.8v-3.4h1.9v8.5h-1.9v-3.5h-3.8v3.5h-1.9Z"/>
      <path class="st2" d="M201.7,29.9v-8.5h6.6v1.6h-4.8v1.8h3.1v1.6h-3.1v1.9h4.8v1.6h-6.7,0Z"/>
      <path class="st2" d="M217.5,30c-1.3,0-2.4-.4-3.2-1.3-.9-.9-1.3-1.9-1.3-3.1s.4-2.3,1.3-3.1,1.9-1.3,3.2-1.3,1.4.1,2,.4,1.2.7,1.6,1.2l-1.3,1.2c-.6-.7-1.4-1.1-2.3-1.1s-1.4.3-1.9.8-.7,1.2-.7,1.9.3,1.4.8,1.9,1.1.8,1.9.8,1-.2,1.5-.5c.4-.3.7-.7.8-1.2h-2.5v-1.6h4.5v.6c0,1.3-.4,2.3-1.2,3.2s-1.8,1.3-3.1,1.3h-.1Z"/>
      <path class="st2" d="M223.6,29.9v-8.5h4.2c.9,0,1.6.3,2.1.7.6.5.8,1.1.8,1.9s-.1,1-.4,1.4-.7.7-1.2.9l1.9,3.5h-2.1l-1.7-3.2h-1.8v3.2h-1.9,0ZM225.4,25.1h2.2c.4,0,.7,0,.9-.3.2-.2.4-.5.4-.8s-.1-.6-.4-.8c-.2-.2-.5-.3-.9-.3h-2.2v2.2h0Z"/>
      <path class="st2" d="M236.7,30c-1.3,0-2.4-.4-3.2-1.3-.9-.9-1.3-1.9-1.3-3.1s.4-2.3,1.3-3.1,2-1.3,3.2-1.3,2.3.4,3.2,1.3,1.3,1.9,1.3,3.1-.4,2.3-1.3,3.1-1.9,1.3-3.2,1.3ZM236.7,28.3c.7,0,1.4-.3,1.9-.8s.8-1.2.8-1.9-.3-1.4-.8-1.9-1.1-.8-1.9-.8-1.4.3-1.9.8-.8,1.2-.8,1.9.3,1.4.8,1.9,1.1.8,1.9.8Z"/>
      <path class="st2" d="M249.5,28.9c-.7.7-1.6,1-2.8,1s-2.1-.3-2.8-1-1-1.6-1-2.8v-4.8h1.9v4.8c0,.6.2,1.2.5,1.5.4.4.8.6,1.4.6s1.1-.2,1.4-.6.5-.9.5-1.5v-4.8h1.9v4.8c0,1.2-.4,2.1-1,2.8h0Z"/>
      <path class="st2" d="M252.6,29.9v-8.5h1.8l4.1,5.3v-5.3h1.8v8.5h-1.7l-4.3-5.5v5.5h-1.8.1Z"/>
      <path class="st2" d="M262.3,29.9v-8.5h3.3c1.3,0,2.3.4,3.2,1.2s1.3,1.8,1.3,3.1-.4,2.2-1.3,3-1.9,1.2-3.2,1.2c0,0-3.3,0-3.3,0ZM264.2,28.2h1.4c.7,0,1.3-.3,1.9-.8.5-.5.8-1.1.8-1.8s-.3-1.4-.8-1.9-1.1-.8-1.9-.8h-1.4v5.2h0Z"/>
    </g>
  </g>
  <g>
    <path class="st2" d="M61.3,30.5c-1.4,0-2.8-.3-4-.8s-2.3-1.2-3.2-2.2-1.6-2-2.2-3.2c-.5-1.2-.8-2.5-.8-4s.2-2.7.8-4,1.2-2.3,2.1-3.2,2-1.6,3.2-2.2c1.2-.5,2.6-.8,4-.8s2.2.2,3.2.6c1.1.4,2,.9,2.9,1.6.8.7,1.5,1.6,2,2.7l-3.4,1.9c-.3-.6-.7-1.1-1.2-1.5s-1-.7-1.6-1c-.6-.2-1.3-.3-2.1-.3s-1.6.2-2.3.5-1.3.8-1.8,1.3c-.5.6-.9,1.2-1.2,2s-.4,1.6-.4,2.5,0,1.8.4,2.5.7,1.4,1.2,2,1.1,1,1.8,1.3,1.5.5,2.3.5,1.2,0,1.7-.2,1-.3,1.4-.5c.4-.2.8-.5,1.1-.8v-4.3h4.1v5.8c-.5.7-1.1,1.4-1.9,1.9-.8.6-1.8,1-2.8,1.4-1.1.4-2.3.5-3.5.5h.2Z"/>
    <path class="st2" d="M87.1,26.3c-.5-1.1-1-2-1.5-2.7-.4-.6-.9-1.1-1.5-1.4.5-.1.9-.3,1.3-.5.9-.5,1.6-1.1,2-2,.5-.8.8-1.8.8-2.9s-.3-2.6-1-3.5-1.6-1.6-2.8-2.1c-1.2-.5-2.5-.7-4-.7h-7.5v19.5h4.2v-6.2h1.7c.7,0,1.3.1,1.8.3.5.2.9.5,1.2.9.3.4.6.9.9,1.5l1.7,3.5h4.6l-1.9-3.9v.2ZM80.4,20.1h-3.3v-5.6h3.4c.6,0,1.2,0,1.7.3.5.2.9.5,1.2.9.3.4.4.9.4,1.6s-.2,1.1-.4,1.5c-.3.4-.7.8-1.2,1s-1.1.3-1.8.3Z"/>
    <path class="st2" d="M100.2,30.4c-2.9,0-5.1-.8-6.4-2.4s-2.1-3.8-2.1-6.6v-10.9h4.2v10.8c0,1.7.3,3,1.1,3.8s1.8,1.2,3.2,1.2,2.5-.4,3.2-1.2,1.1-2.1,1.1-3.8v-10.8h4.2v10.9c0,2.8-.7,5-2.1,6.6s-3.5,2.4-6.4,2.4h0Z"/>
    <polygon class="st2" points="130.4 10.6 126.6 14.5 120.5 14.5 120.5 30.1 116.2 30.1 116.2 14.5 110.5 14.5 110.5 10.6 130.4 10.6"/>
    <path class="st2" d="M132.8,30.1h-4.2v-15.2l4.2-4.3v7.9h8.9v-7.9h4.2v19.5h-4.2v-7.8h-8.9v7.8Z"/>
  </g>
  <rect class="st2" x="152.6" y="10.5" width=".3" height="19.6"/>
  <g>
    <circle class="st0" cx="25.9" cy="20.4" r="18.5"/>
    <g>
      <circle class="st3" cx="25.9" cy="20.4" r="9.8"/>
      <circle class="st1" cx="31.2" cy="12.6" r="4.2"/>
    </g>
  </g>
</svg>