<?xml version="1.0" encoding="UTF-8"?>
<svg id="Layer_1" data-name="Layer 1" xmlns="http://www.w3.org/2000/svg" viewBox="0 0 150 40.78">
  <defs>
    <style>
      .cls-1 {
        fill: #ff931e;
      }

      .cls-2 {
        fill: #fff;
      }

      .cls-3 {
        fill: #333;
      }
    </style>
  </defs>
  <g>
    <path class="cls-3" d="M61.32,29.82c-1.43,0-2.76-.26-3.99-.78-1.23-.52-2.3-1.25-3.22-2.18s-1.63-2.01-2.15-3.24c-.51-1.23-.77-2.55-.77-3.96s.25-2.73.75-3.96c.5-1.23,1.21-2.3,2.13-3.22s2-1.64,3.24-2.16c1.24-.52,2.57-.78,4-.78,1.1,0,2.19.18,3.25.55,1.06.37,2.02.9,2.86,1.61.84.71,1.5,1.59,1.99,2.66l-3.45,1.94c-.33-.58-.72-1.08-1.18-1.5-.46-.42-.98-.74-1.58-.96-.6-.22-1.29-.33-2.06-.33-.83,0-1.59.16-2.26.48-.68.32-1.27.75-1.77,1.31-.5.55-.89,1.21-1.16,1.96-.27.75-.41,1.58-.41,2.47s.14,1.75.42,2.51c.28.76.67,1.43,1.18,1.99.5.56,1.11.99,1.83,1.29.72.3,1.5.45,2.35.45.64,0,1.22-.06,1.74-.17s.99-.28,1.41-.48c.42-.2.77-.46,1.06-.77l-.03-4.32h4.12v5.75c-.46.72-1.1,1.36-1.92,1.94-.81.58-1.76,1.04-2.84,1.39-1.08.35-2.26.52-3.54.52Z"/>
    <path class="cls-3" d="M87.09,25.55c-.52-1.09-1.02-1.97-1.49-2.66-.43-.61-.92-1.08-1.51-1.39.47-.12.9-.29,1.29-.51.87-.48,1.55-1.15,2.04-1.99.5-.84.75-1.81.75-2.91,0-1.4-.35-2.55-1.03-3.47-.69-.92-1.63-1.61-2.81-2.06-1.18-.46-2.5-.69-3.97-.69h-7.52v19.54h4.18l.02-6.24h1.66c.74,0,1.34.1,1.82.32.47.21.87.52,1.2.93.33.4.64.9.93,1.5l1.74,3.49h4.59l-1.89-3.86ZM80.36,19.39h-3.3l.02-5.6h3.34c.63,0,1.21.09,1.72.28.52.18.92.47,1.22.87.3.4.45.92.45,1.58,0,.6-.15,1.12-.45,1.55-.3.44-.7.77-1.22.99-.51.22-1.1.33-1.78.33Z"/>
    <path class="cls-3" d="M100.18,29.73c-2.92,0-5.07-.79-6.44-2.38-1.37-1.59-2.06-3.79-2.06-6.62v-10.85h4.24v10.77c0,1.7.35,2.97,1.06,3.8.71.83,1.77,1.25,3.21,1.25s2.5-.42,3.21-1.25c.71-.83,1.06-2.1,1.06-3.8v-10.77h4.24v10.85c0,2.83-.69,5.03-2.08,6.62-1.38,1.59-3.53,2.38-6.43,2.38Z"/>
    <polygon class="cls-3" points="126.21 9.87 126.21 13.79 120.47 13.79 120.47 29.41 116.23 29.41 116.23 13.79 110.48 13.79 110.48 9.87 126.21 9.87"/>
    <path class="cls-3" d="M132.77,29.41h-4.24V9.88h4.24v7.86h8.91v-7.86h4.24v19.53h-4.24v-7.78h-8.91v7.78Z"/>
  </g>
  <g>
    <circle class="cls-1" cx="18.9" cy="19.67" r="16.25"/>
    <g>
      <circle class="cls-3" cx="18.9" cy="19.67" r="8.59"/>
      <circle class="cls-2" cx="23.63" cy="12.77" r="3.73"/>
    </g>
  </g>
  <rect class="cls-3" x="42.64" y="5.05" width=".24" height="29.26"/>
</svg>