<?xml version="1.0" encoding="UTF-8"?>
<svg id="Layer_1" xmlns="http://www.w3.org/2000/svg" version="1.1" viewBox="0 0 206 40.8">
  <!-- Generator: Adobe Illustrator 29.3.1, SVG Export Plug-In . SVG Version: 2.1.0 Build 151)  -->
  <defs>
    <style>
      .st0 {
        fill: #f97316;
      }

      .st1 {
        fill: #fff;
      }

      .st2 {
        font-family: Bilo-Hairline, Bilo;
        font-size: 12px;
        font-weight: 100;
      }

      .st3 {
        fill: #f7f7f7;
      }

      .st4 {
        fill: #333;
      }
    </style>
  </defs>
  <g>
    <path class="st4" d="M72.2-195.9c-3.1,0-5.8-1.1-8-3.2-2.2-2.1-3.3-4.7-3.3-7.8s1.1-5.7,3.2-7.8c2.2-2.1,4.8-3.2,7.9-3.2s3.4.3,4.9,1c1.5.7,2.8,1.6,3.9,2.9l-2.9,2.6c-1.5-1.9-3.5-2.8-5.9-2.8s-3.6.7-5,2.1c-1.3,1.4-2,3.1-2,5.1s.7,3.8,2,5.2c1.4,1.4,3,2.1,5.1,2.1s2.9-.5,4.1-1.4,1.9-2.1,2.1-3.5h-6.5v-3.6h10.8v1.3c0,3.1-1,5.7-3,7.7-2,2.1-4.5,3.1-7.6,3.1Z"/>
    <path class="st4" d="M84.4-196.2v-21.3h10.1c2.1,0,3.9.6,5.3,1.8,1.4,1.2,2,2.8,2,4.7s-.4,2.6-1.1,3.6c-.8,1-1.8,1.8-3.1,2.3l4.7,8.9h-4.5l-4.2-8.3h-5.1v8.3h-4.1ZM88.4-207.8h5.7c1.1,0,1.9-.3,2.6-.8s1-1.3,1-2.2-.3-1.6-1-2.2c-.6-.6-1.5-.8-2.6-.8h-5.7v6.1Z"/>
    <path class="st4" d="M119-198.5c-1.7,1.7-4,2.6-6.8,2.6s-5.1-.9-6.8-2.6-2.5-4-2.5-6.9v-12.1h4.1v12.1c0,1.7.5,3.1,1.4,4.2,1,1,2.2,1.5,3.8,1.5s2.9-.5,3.8-1.5c.9-1,1.4-2.4,1.4-4.2v-12.1h4.1v12.1c0,2.9-.8,5.2-2.5,6.9Z"/>
    <path class="st4" d="M129.5-196.2v-17.6h-7.2v-3.6h18.6v3.6h-7.3v17.6h-4.1Z"/>
    <path class="st4" d="M141.8-196.2v-21.3h4.1v8.7h10.2v-8.7h4.1v21.3h-4.1v-8.9h-10.2v8.9h-4.1Z"/>
  </g>
  <g>
    <circle class="st0" cx="41.3" cy="-206.8" r="16.5"/>
    <g>
      <circle class="st4" cx="40.6" cy="-206.8" r="8.7"/>
      <circle class="st1" cx="48.1" cy="-203.3" r="2.6"/>
    </g>
  </g>
  <rect class="st0" x="173.3" y="-220.8" width=".8" height="27.9"/>
  <text class="st2" transform="translate(184.5 -210.1)"><tspan x="0" y="0">Your Eyes</tspan><tspan x="0" y="14.4">On the Ground</tspan></text>
  <g>
    <g>
      <path class="st3" d="M30.2,8v22.6c0,5.8-4.1,9.6-10.3,9.6s-.5,0-.8,0v-4.5c.3,0,.6,0,.8,0,3.2,0,5.1-2,5.1-5.2v-.4c-1.7,1.1-3.7,1.7-5.8,1.7-6.2,0-11.2-5.3-11.2-11.9s5-11.9,11.2-11.9,4.1.6,5.8,1.7v-1.9h5.1ZM25.1,20c0-3.8-2.7-6.9-6-6.9s-6,3.1-6,6.9,2.7,6.9,6,6.9,6-3.1,6-6.9Z"/>
      <path class="st3" d="M45.8,7.8v5.2h-6.8v18.6h-5.1V7.8h11.9Z"/>
      <path class="st3" d="M69.7,7.9v11.9c0,6.5-5,11.9-11.2,11.9s-11.2-5.3-11.2-11.9V7.9h5.2v11.9c0,3.7,2.7,6.7,6,6.7s6-3,6-6.7V7.9h5.2Z"/>
      <path class="st3" d="M81.4,26.5v5.2h-2.1c-3.7,0-6.7-3-6.7-6.7V2.9h5.2v5h3.4v5.2h-3.4v11.9c0,.8.7,1.5,1.5,1.5h2.1Z"/>
      <path class="st3" d="M106.6,19.7v11.9h-5.2v-11.9c0-3.7-2.7-6.7-6-6.7s-6,3-6,6.7v11.9h-5.2v-11.9c0-.2,0-.3,0-.5V.5h5.1v9.2c1.7-1.2,3.8-1.9,6-1.9,6.2,0,11.2,5.3,11.2,11.9Z"/>
    </g>
    <path class="st0" d="M22.8,21.9c0,.1-.1.3-.2.4-1.1,2.1-3.4,2.8-5.3,1.6-1.8-1.2-2.5-3.8-1.4-5.9,1.1-2.1,3.4-2.8,5.3-1.5.7.5,1.2,1.1,1.6,1.9-.6.2-1.2.7-1.3,1.5-.1,1,.4,1.9,1.3,2.1Z"/>
    <g>
      <path class="st3" d="M125,14v4.9h-1.6v-4.9l-2.3-5.9h1.7l1.4,3.8h0l1.3-3.8h1.7l-2.2,5.9Z"/>
      <path class="st3" d="M132.9,10.7v5.6c0,1.7-1,2.7-2.6,2.7s-2.6-1-2.6-2.7v-5.6c0-1.7,1-2.7,2.6-2.7s2.6,1,2.6,2.7ZM129.3,10.7v5.6c0,.8.4,1.2,1,1.2s1-.4,1-1.2v-5.6c0-.8-.4-1.2-1-1.2s-1,.4-1,1.2Z"/>
      <path class="st3" d="M139.5,16.5c0,1.7-1,2.6-2.5,2.6s-2.5-.9-2.5-2.6v-8.4h1.6v8.3c0,.8.4,1.1.9,1.1s.9-.3.9-1.1v-8.3h1.6v8.4Z"/>
      <path class="st3" d="M144.8,18.9l-1.3-4.6h-.8v4.6h-1.6v-10.8h2.4c1.8,0,2.7,1,2.7,2.7v.8c0,1.1-.4,1.9-1.2,2.4l1.5,4.9h-1.7ZM142.8,9.6v3.2h.7c.8,0,1.1-.4,1.1-1.3v-.6c0-.9-.4-1.3-1.1-1.3h-.7Z"/>
      <path class="st3" d="M155,9.6h-3v3.1h2.4v1.5h-2.4v3.2h3v1.5h-4.6v-10.8h4.6v1.5Z"/>
      <path class="st3" d="M159.2,14v4.9h-1.6v-4.9l-2.3-5.9h1.7l1.4,3.8h0l1.3-3.8h1.7l-2.2,5.9Z"/>
      <path class="st3" d="M166.8,9.6h-3v3.1h2.4v1.5h-2.4v3.2h3v1.5h-4.6v-10.8h4.6v1.5Z"/>
      <path class="st3" d="M172.5,10.4v.3l-1.6.2v-.4c0-.6-.3-.9-.8-.9s-.8.3-.8.9h0c0,.8.3,1.3,1.4,2.2,1.5,1.3,2,2.2,2,3.5v.5c0,1.5-.9,2.4-2.5,2.4s-2.5-.9-2.5-2.4v-.7l1.6-.2v.8c0,.7.3,1,.9,1s.9-.3.9-1v-.4c0-.7-.3-1.2-1.4-2.1-1.5-1.3-2-2.2-2-3.4v-.2c0-1.5.9-2.4,2.4-2.4s2.4.9,2.4,2.4Z"/>
      <path class="st3" d="M127.3,23.5v5.6c0,1.7-1,2.7-2.6,2.7s-2.6-1-2.6-2.7v-5.6c0-1.7,1-2.7,2.6-2.7s2.6,1,2.6,2.7ZM123.6,23.5v5.6c0,.8.4,1.2,1,1.2s1-.4,1-1.2v-5.6c0-.8-.4-1.2-1-1.2s-1,.4-1,1.2Z"/>
      <path class="st3" d="M134.2,31.7h-1.6l-2.1-7.2h0v7.2h-1.5v-10.8h1.8l1.9,6.4h0v-6.4h1.5v10.8Z"/>
      <path class="st3" d="M143,22.5h-1.7v9.2h-1.6v-9.2h-1.7v-1.5h5.1v1.5Z"/>
      <path class="st3" d="M149.3,31.7h-1.6v-4.7h-1.9v4.7h-1.6v-10.8h1.6v4.5h1.9v-4.5h1.6v10.8Z"/>
      <path class="st3" d="M155.7,22.5h-3v3.1h2.4v1.5h-2.4v3.2h3v1.5h-4.6v-10.8h4.6v1.5Z"/>
      <path class="st3" d="M164.9,23.4v.7h-1.6c0,0,0-.6,0-.6,0-.9-.3-1.2-1-1.2s-1,.4-1,1.1v5.9c0,.7.3,1.1.9,1.1s.9-.4.9-1.2v-1.8h-.9v-1.5h2.5v3.5c0,1.6-.9,2.6-2.6,2.6s-2.5-1-2.5-2.6v-5.9c0-1.6.9-2.6,2.5-2.6s2.6,1,2.6,2.6Z"/>
      <path class="st3" d="M170.1,31.7l-1.3-4.6h-.8v4.6h-1.6v-10.8h2.4c1.8,0,2.7,1,2.7,2.7v.8c0,1.1-.4,1.9-1.2,2.4l1.5,4.9h-1.7ZM168.1,22.5v3.2h.7c.8,0,1.1-.4,1.1-1.3v-.6c0-.9-.4-1.3-1.1-1.3h-.7Z"/>
      <path class="st3" d="M178.1,23.5v5.6c0,1.7-1,2.7-2.6,2.7s-2.6-1-2.6-2.7v-5.6c0-1.7,1-2.7,2.6-2.7s2.6,1,2.6,2.7ZM174.5,23.5v5.6c0,.8.4,1.2,1,1.2s1-.4,1-1.2v-5.6c0-.8-.4-1.2-1-1.2s-1,.4-1,1.2Z"/>
      <path class="st3" d="M184.7,29.3c0,1.7-1,2.6-2.5,2.6s-2.5-.9-2.5-2.6v-8.4h1.6v8.3c0,.8.4,1.1.9,1.1s.9-.3.9-1.1v-8.3h1.6v8.4Z"/>
      <path class="st3" d="M191.7,31.7h-1.6l-2.1-7.2h0v7.2h-1.5v-10.8h1.8l1.9,6.4h0v-6.4h1.5v10.8Z"/>
      <path class="st3" d="M198.5,23.7v5.3c0,1.8-1,2.7-2.7,2.7h-2.3v-10.8h2.3c1.8,0,2.7,1,2.7,2.7ZM195.1,22.5v7.8h.6c.8,0,1.1-.4,1.1-1.3v-5.1c0-.9-.4-1.3-1.1-1.3h-.6Z"/>
    </g>
    <rect class="st3" x="114" y="8.1" width=".5" height="23.5"/>
  </g>
</svg>