<?xml version="1.0" encoding="UTF-8"?>
<svg id="Layer_1" xmlns="http://www.w3.org/2000/svg" version="1.1" viewBox="0 0 206 40.8">
  <!-- Generator: Adobe Illustrator 29.3.1, SVG Export Plug-In . SVG Version: 2.1.0 Build 151)  -->
  <defs>
    <style>
      .st0 {
        fill: #6d6d6d;
      }

      .st1 {
        fill: #f97316;
      }

      .st2 {
        fill: #fff;
      }

      .st3 {
        fill: #333;
      }
    </style>
  </defs>
  <g>
    <path class="st3" d="M48.8,31.4c-2.8,0-5.3-1-7.3-2.9-2-1.9-3-4.3-3-7.1s1-5.2,2.9-7.1c2-1.9,4.4-2.9,7.2-2.9s3.1.3,4.5.9,2.5,1.5,3.5,2.6l-2.6,2.4c-1.4-1.7-3.2-2.5-5.4-2.5s-3.3.6-4.5,1.9c-1.2,1.3-1.8,2.8-1.8,4.6s.6,3.5,1.8,4.7c1.3,1.3,2.7,1.9,4.6,1.9s2.6-.5,3.7-1.3,1.7-1.9,1.9-3.2h-5.9v-3.3h9.8v1.2c0,2.8-.9,5.2-2.7,7-1.8,1.9-4.1,2.8-6.9,2.8l.2.2Z"/>
    <path class="st3" d="M59.9,31.2V11.8h9.2c1.9,0,3.5.5,4.8,1.6s1.8,2.5,1.8,4.3-.4,2.4-1,3.3c-.7.9-1.6,1.6-2.8,2.1l4.3,8.1h-4.1l-3.8-7.5h-4.6v7.5h-3.7ZM63.5,20.6h5.2c1,0,1.7-.3,2.4-.7s.9-1.2.9-2-.3-1.5-.9-2c-.5-.5-1.4-.7-2.4-.7h-5.2v5.5h0Z"/>
    <path class="st3" d="M91.3,29.1c-1.5,1.5-3.6,2.4-6.2,2.4s-4.6-.8-6.2-2.4-2.3-3.6-2.3-6.3v-11h3.7v11c0,1.5.5,2.8,1.3,3.8.9.9,2,1.4,3.5,1.4s2.6-.5,3.5-1.4,1.3-2.2,1.3-3.8v-11h3.7v11c0,2.6-.7,4.7-2.3,6.3Z"/>
    <path class="st3" d="M100.9,31.2V15.2h-6.5v-3.3h16.9v3.3h-6.6v16h-3.7Z"/>
    <path class="st3" d="M112.1,31.2V11.8h3.7v7.9h9.3v-7.9h3.7v19.4h-3.7v-8.1h-9.3v8.1h-3.7Z"/>
  </g>
  <g>
    <circle class="st1" cx="17.6" cy="21.5" r="15.4"/>
    <g>
      <circle class="st3" cx="17.6" cy="21.5" r="7.6"/>
      <circle class="st2" cx="11.9" cy="16.9" r="3" transform="translate(-7.3 24.5) rotate(-76.2)"/>
    </g>
  </g>
  <rect class="st1" x="134.6" y="11.8" width=".4" height="19.4"/>
  <g>
    <path class="st0" d="M143,16.7v4h-1.3v-4l-1.9-4.8h1.4l1.1,3.1h0l1.1-3.1h1.4l-1.8,4.8Z"/>
    <path class="st0" d="M149.4,14v4.5c0,1.4-.8,2.2-2.1,2.2s-2.1-.8-2.1-2.2v-4.5c0-1.4.8-2.2,2.1-2.2s2.1.8,2.1,2.2ZM146.5,14v4.5c0,.6.3,1,.8,1s.8-.3.8-1v-4.5c0-.6-.3-1-.8-1s-.8.3-.8,1Z"/>
    <path class="st0" d="M154.8,18.7c0,1.4-.8,2.1-2,2.1s-2-.7-2-2.1v-6.8h1.3v6.7c0,.6.3.9.7.9s.7-.2.7-.9v-6.7h1.3v6.8Z"/>
    <path class="st0" d="M159.1,20.6l-1.1-3.7h-.6v3.7h-1.3v-8.8h1.9c1.5,0,2.2.8,2.2,2.2v.6c0,.9-.3,1.5-1,1.9l1.2,4h-1.4,0ZM157.5,13.1v2.6h.6c.6,0,.9-.3.9-1.1v-.5c0-.7-.3-1.1-.9-1.1,0,0-.6,0-.6,0Z"/>
    <path class="st0" d="M167.3,13.1h-2.4v2.5h1.9v1.2h-1.9v2.6h2.4v1.2h-3.7v-8.8h3.7s0,1.2,0,1.2Z"/>
    <path class="st0" d="M170.7,16.7v4h-1.3v-4l-1.9-4.8h1.4l1.1,3.1h0l1.1-3.1h1.4l-1.8,4.8h0Z"/>
    <path class="st0" d="M176.9,13.1h-2.4v2.5h1.9v1.2h-1.9v2.6h2.4v1.2h-3.7v-8.8h3.7s0,1.2,0,1.2Z"/>
    <path class="st0" d="M181.5,13.7v.2l-1.3.2v-.3c0-.5-.2-.7-.6-.7s-.6.2-.6.7h0c0,.6.2,1.1,1.1,1.8,1.2,1.1,1.6,1.8,1.6,2.8v.4c0,1.2-.7,1.9-2,1.9s-2-.7-2-1.9v-.6l1.3-.2v.6c0,.6.2.8.7.8s.7-.2.7-.8v-.3c0-.6-.2-1-1.1-1.7-1.2-1.1-1.6-1.8-1.6-2.8v-.2c0-1.2.7-1.9,1.9-1.9s1.9.7,1.9,1.9h0Z"/>
    <path class="st0" d="M144.9,24.4v4.5c0,1.4-.8,2.2-2.1,2.2s-2.1-.8-2.1-2.2v-4.5c0-1.4.8-2.2,2.1-2.2s2.1.8,2.1,2.2ZM141.9,24.4v4.5c0,.6.3,1,.8,1s.8-.3.8-1v-4.5c0-.6-.3-1-.8-1s-.8.3-.8,1Z"/>
    <path class="st0" d="M150.5,31h-1.3l-1.7-5.8h0v5.8h-1.2v-8.8h1.5l1.5,5.2h0v-5.2h1.2v8.8h0Z"/>
    <path class="st0" d="M157.6,23.5h-1.4v7.5h-1.3v-7.5h-1.4v-1.2h4.1v1.2h0Z"/>
    <path class="st0" d="M162.7,31h-1.3v-3.8h-1.5v3.8h-1.3v-8.8h1.3v3.6h1.5v-3.6h1.3v8.8Z"/>
    <path class="st0" d="M167.9,23.5h-2.4v2.5h1.9v1.2h-1.9v2.6h2.4v1.2h-3.7v-8.8h3.7v1.2Z"/>
    <path class="st0" d="M175.4,24.3v.6h-1.3v-.5c0-.7-.2-1-.8-1s-.8.3-.8.9v4.8c0,.6.2.9.7.9s.7-.3.7-1v-1.5h-.7v-1.2h2v2.8c0,1.3-.7,2.1-2.1,2.1s-2-.8-2-2.1v-4.8c0-1.3.7-2.1,2-2.1s2.1.8,2.1,2.1h.2Z"/>
    <path class="st0" d="M179.6,31l-1.1-3.7h-.6v3.7h-1.3v-8.8h1.9c1.5,0,2.2.8,2.2,2.2v.6c0,.9-.3,1.5-1,1.9l1.2,4h-1.4,0ZM178,23.5v2.6h.6c.6,0,.9-.3.9-1.1v-.5c0-.7-.3-1.1-.9-1.1,0,0-.6,0-.6,0Z"/>
    <path class="st0" d="M186.1,24.4v4.5c0,1.4-.8,2.2-2.1,2.2s-2.1-.8-2.1-2.2v-4.5c0-1.4.8-2.2,2.1-2.2s2.1.8,2.1,2.2ZM183.1,24.4v4.5c0,.6.3,1,.8,1s.8-.3.8-1v-4.5c0-.6-.3-1-.8-1s-.8.3-.8,1Z"/>
    <path class="st0" d="M191.4,29.1c0,1.4-.8,2.1-2,2.1s-2-.7-2-2.1v-6.8h1.3v6.7c0,.6.3.9.7.9s.7-.2.7-.9v-6.7h1.3s0,6.8,0,6.8Z"/>
    <path class="st0" d="M197.1,31h-1.3l-1.7-5.8h0v5.8h-1.2v-8.8h1.5l1.5,5.2h0v-5.2h1.2v8.8h0Z"/>
    <path class="st0" d="M202.6,24.5v4.3c0,1.5-.8,2.2-2.2,2.2h-1.9v-8.8h1.9c1.5,0,2.2.8,2.2,2.2h0ZM199.8,23.5v6.3h.5c.6,0,.9-.3.9-1.1v-4.1c0-.7-.3-1.1-.9-1.1h-.5Z"/>
  </g>
</svg>