<?xml version="1.0" encoding="UTF-8"?>
<svg id="Layer_1" data-name="Layer 1" xmlns="http://www.w3.org/2000/svg" viewBox="0 0 125.65 40.78">
  <defs>
    <style>
      .cls-1 {
        fill: #ff931e;
      }

      .cls-2 {
        fill: #fff;
      }

      .cls-3 {
        letter-spacing: -.02em;
      }

      .cls-4 {
        letter-spacing: -.02em;
      }

      .cls-5 {
        letter-spacing: -.02em;
      }

      .cls-6 {
        letter-spacing: -.02em;
      }

      .cls-7 {
        letter-spacing: -.03em;
      }

      .cls-8 {
        letter-spacing: -.04em;
      }

      .cls-9 {
        letter-spacing: -.03em;
      }

      .cls-10 {
        letter-spacing: 0em;
      }

      .cls-11 {
        letter-spacing: 0em;
      }

      .cls-12 {
        letter-spacing: 0em;
      }

      .cls-13 {
        letter-spacing: 0em;
      }

      .cls-14 {
        fill: #333;
      }

      .cls-15 {
        fill: #666;
        font-family: RedHatDisplay-Bold, 'Red Hat Display';
        font-size: 6.48px;
        font-weight: 700;
      }
    </style>
  </defs>
  <g>
    <text class="cls-15" transform="translate(60.85 25.76)"><tspan class="cls-9" x="0" y="0">R</tspan><tspan class="cls-12" x="4.14" y="0">e</tspan><tspan class="cls-10" x="7.85" y="0">al </tspan><tspan class="cls-3" x="14.16" y="0">ey</tspan><tspan x="21.34" y="0">e</tspan><tspan class="cls-13" x="25.12" y="0">s</tspan><tspan class="cls-11" x="28.19" y="0">. </tspan><tspan class="cls-7" x="31.06" y="0">R</tspan><tspan class="cls-12" x="35.2" y="0">e</tspan><tspan class="cls-11" x="38.92" y="0">al </tspan><tspan class="cls-4" x="45.22" y="0">f</tspan><tspan class="cls-10" x="47.8" y="0">a</tspan><tspan class="cls-5" x="51.33" y="0">s</tspan><tspan class="cls-11" x="54.36" y="0">t. </tspan><tspan class="cls-9" x="0" y="7.77">R</tspan><tspan class="cls-12" x="4.14" y="7.77">e</tspan><tspan class="cls-10" x="7.85" y="7.77">al p</tspan><tspan class="cls-12" x="18.18" y="7.77">e</tspan><tspan class="cls-11" x="21.89" y="7.77">a</tspan><tspan class="cls-6" x="25.42" y="7.77">c</tspan><tspan class="cls-8" x="28.71" y="7.77">e</tspan><tspan class="cls-11" x="32.26" y="7.77">. </tspan></text>
    <g>
      <path class="cls-14" d="M67.06,17.86c-.88,0-1.69-.16-2.45-.48-.75-.32-1.41-.77-1.98-1.34s-1-1.23-1.32-1.99c-.31-.75-.47-1.56-.47-2.43s.15-1.68.46-2.43c.31-.75.74-1.41,1.31-1.98s1.23-1.01,1.98-1.33c.76-.32,1.58-.48,2.46-.48.68,0,1.34.11,1.99.34.65.23,1.24.55,1.75.99.52.43.92.98,1.22,1.63l-2.12,1.19c-.2-.36-.44-.66-.72-.92-.28-.26-.6-.45-.97-.59-.37-.14-.79-.2-1.26-.2-.51,0-.97.1-1.39.29-.42.2-.78.46-1.09.8-.31.34-.55.74-.71,1.2-.17.46-.25.97-.25,1.51s.09,1.07.26,1.54c.17.47.41.88.72,1.22.31.34.68.61,1.12.79.44.18.92.28,1.44.28.39,0,.75-.04,1.07-.11s.61-.17.86-.29c.26-.12.47-.28.65-.47l-.02-2.65h2.53v3.53c-.28.44-.68.84-1.17,1.19-.5.36-1.08.64-1.74.85-.66.21-1.39.32-2.17.32Z"/>
      <path class="cls-14" d="M82.87,15.25c-.32-.67-.63-1.21-.91-1.63-.26-.37-.56-.66-.93-.85.29-.07.55-.18.79-.31.53-.29.95-.71,1.25-1.22.31-.52.46-1.11.46-1.78,0-.86-.21-1.56-.63-2.13-.42-.56-1-.99-1.72-1.26-.72-.28-1.53-.42-2.44-.42h-4.61v11.99h2.56v-3.83h1.03c.45,0,.82.06,1.12.2.29.13.53.32.74.57.2.25.39.55.57.92l1.07,2.14h2.82l-1.16-2.37ZM78.74,11.47h-2.02v-3.43h2.06c.39,0,.74.06,1.05.17.32.11.56.29.75.53.18.25.28.56.28.97,0,.37-.09.69-.28.95-.18.27-.43.47-.75.61-.31.13-.67.2-1.09.2Z"/>
      <path class="cls-14" d="M90.89,17.81c-1.79,0-3.11-.49-3.95-1.46-.84-.97-1.26-2.33-1.26-4.06v-6.66h2.6v6.6c0,1.04.22,1.82.65,2.33.43.51,1.09.77,1.97.77s1.53-.26,1.97-.77c.43-.51.65-1.29.65-2.33v-6.6h2.6v6.66c0,1.73-.42,3.09-1.27,4.06-.85.97-2.16,1.46-3.94,1.46Z"/>
      <polygon class="cls-14" points="106.86 5.63 106.86 8.04 103.34 8.04 103.34 17.62 100.74 17.62 100.74 8.04 97.21 8.04 97.21 5.63 106.86 5.63"/>
      <path class="cls-14" d="M110.88,17.62h-2.6V5.64h2.6v4.82h5.47v-4.82h2.6v11.98h-2.6v-4.77h-5.47v4.77Z"/>
    </g>
  </g>
  <g>
    <circle class="cls-1" cx="21.62" cy="20.39" r="18.45"/>
    <g>
      <circle class="cls-14" cx="21.62" cy="20.39" r="9.75"/>
      <circle class="cls-2" cx="26.98" cy="12.56" r="4.23"/>
    </g>
  </g>
  <rect class="cls-14" x="49.17" y="4" width=".55" height="32.78"/>
</svg>